<svg width="2709" height="513" viewBox="0 0 2709 513" fill="none" xmlns="http://www.w3.org/2000/svg">
<path d="M512 256.004C512 397.389 397.385 512.004 256 512.004C114.615 512.004 0 397.389 0 256.004C0 114.619 114.615 0.00390625 256 0.00390625C397.385 0.00390625 512 114.619 512 256.004Z" fill="url(#paint0_angular_10057_117542)"/>
<path fill-rule="evenodd" clip-rule="evenodd" d="M201.878 115.56C225.663 139.416 225.491 178.266 201.494 202.334C201.494 202.334 182.21 182.997 158.425 159.142L143.044 143.716C116.55 170.308 117.099 213.952 144.276 241.21C171.459 268.473 214.989 269.018 241.501 242.427L375.991 107.541C380.394 111.257 384.675 115.195 388.822 119.355C465.275 196.033 466.804 318.819 392.236 393.606C391.768 394.076 391.299 394.542 390.827 395.005C400.775 417.509 396.453 444.913 377.919 463.501C377.919 463.501 363.091 448.631 343.401 428.884C343.12 429.025 342.838 429.165 342.555 429.304C342.801 429.183 343.047 429.061 343.292 428.939C342.05 427.585 340.773 426.25 339.463 424.936C289.465 374.791 209.474 373.67 160.559 422.338C145.643 413.724 131.574 403.003 118.791 390.182C42.3435 313.51 40.8082 190.735 115.359 115.946C115.515 115.79 115.671 115.635 115.828 115.481C118.188 113.114 135.973 95.273 157.565 73.6177C180.764 50.3506 199.572 31.4906 199.572 31.4906C222.928 54.9163 223.806 92.1758 201.86 115.543L201.878 115.56ZM295.219 287.277C301.018 281.461 300.899 271.91 294.953 265.947C289.007 259.983 279.485 259.863 273.685 265.68C267.885 271.497 268.004 281.047 273.951 287.011C279.897 292.975 289.419 293.094 295.219 287.277ZM365.992 367.303C407.324 313.145 411.208 239.028 378.074 179.477L387.422 170.1C425.332 235.143 421.455 317.302 375.293 376.632L365.992 367.303ZM352.804 204.82C373.526 249.396 369.72 302.176 341.128 342.366L350.469 351.735C383.814 306.267 387.67 245.502 362.357 195.239L352.804 204.82ZM312.924 314.079C327.606 290.236 330.979 261.213 323.136 234.576L333.266 224.416C345.194 257.23 341.609 294.137 322.367 323.55L312.924 314.079Z" fill="white"/>
<path d="M172.703 428.798C222.786 453.245 280.645 455.214 331.008 434.515C330.896 434.401 330.784 434.288 330.671 434.174C330.602 434.104 330.532 434.034 330.462 433.964C286.54 389.913 216.853 387.977 172.703 428.798Z" fill="white"/>
<path d="M852.96 186.4V381H821.04V247.72L761.68 381H739.56L679.92 247.72V381H648V186.4H682.44L750.76 339L818.8 186.4H852.96Z" fill="url(#paint1_linear_10057_117542)"/>
<path d="M961.834 383.52C947.274 383.52 934.114 380.253 922.354 373.72C910.594 367 901.354 357.667 894.634 345.72C887.914 333.587 884.554 319.587 884.554 303.72C884.554 288.04 888.007 274.133 894.914 262C901.821 249.867 911.247 240.533 923.194 234C935.141 227.467 948.487 224.2 963.234 224.2C977.981 224.2 991.327 227.467 1003.27 234C1015.22 240.533 1024.65 249.867 1031.55 262C1038.46 274.133 1041.91 288.04 1041.91 303.72C1041.91 319.4 1038.37 333.307 1031.27 345.44C1024.18 357.573 1014.47 367 1002.15 373.72C990.021 380.253 976.581 383.52 961.834 383.52ZM961.834 355.8C970.047 355.8 977.701 353.84 984.794 349.92C992.074 346 997.954 340.12 1002.43 332.28C1006.91 324.44 1009.15 314.92 1009.15 303.72C1009.15 292.52 1007.01 283.093 1002.71 275.44C998.421 267.6 992.727 261.72 985.634 257.8C978.541 253.88 970.887 251.92 962.674 251.92C954.461 251.92 946.807 253.88 939.714 257.8C932.807 261.72 927.301 267.6 923.194 275.44C919.087 283.093 917.034 292.52 917.034 303.72C917.034 320.333 921.234 333.213 929.634 342.36C938.221 351.32 948.954 355.8 961.834 355.8Z" fill="url(#paint2_linear_10057_117542)"/>
<path d="M1151.31 224.2C1163.44 224.2 1174.27 226.72 1183.79 231.76C1193.5 236.8 1201.06 244.267 1206.47 254.16C1211.88 264.053 1214.59 276 1214.59 290V381H1182.95V294.76C1182.95 280.947 1179.5 270.4 1172.59 263.12C1165.68 255.653 1156.26 251.92 1144.31 251.92C1132.36 251.92 1122.84 255.653 1115.75 263.12C1108.84 270.4 1105.39 280.947 1105.39 294.76V381H1073.47V226.72H1105.39V244.36C1110.62 238.013 1117.24 233.067 1125.27 229.52C1133.48 225.973 1142.16 224.2 1151.31 224.2Z" fill="url(#paint3_linear_10057_117542)"/>
<path d="M1292.54 252.76V338.16C1292.54 343.947 1293.85 348.147 1296.46 350.76C1299.26 353.187 1303.93 354.4 1310.46 354.4H1330.06V381H1304.86C1290.49 381 1279.48 377.64 1271.82 370.92C1264.17 364.2 1260.34 353.28 1260.34 338.16V252.76H1242.14V226.72H1260.34V188.36H1292.54V226.72H1330.06V252.76H1292.54Z" fill="url(#paint4_linear_10057_117542)"/>
<path d="M1500.88 300.08C1500.88 305.867 1500.51 311.093 1499.76 315.76H1381.88C1382.82 328.08 1387.39 337.973 1395.6 345.44C1403.82 352.907 1413.9 356.64 1425.84 356.64C1443.02 356.64 1455.15 349.453 1462.24 335.08H1496.68C1492.02 349.267 1483.52 360.933 1471.2 370.08C1459.07 379.04 1443.95 383.52 1425.84 383.52C1411.1 383.52 1397.84 380.253 1386.08 373.72C1374.51 367 1365.36 357.667 1358.64 345.72C1352.11 333.587 1348.84 319.587 1348.84 303.72C1348.84 287.853 1352.02 273.947 1358.36 262C1364.9 249.867 1373.95 240.533 1385.52 234C1397.28 227.467 1410.72 224.2 1425.84 224.2C1440.4 224.2 1453.38 227.373 1464.76 233.72C1476.15 240.067 1485.02 249.027 1491.36 260.6C1497.71 271.987 1500.88 285.147 1500.88 300.08ZM1467.56 290C1467.38 278.24 1463.18 268.813 1454.96 261.72C1446.75 254.627 1436.58 251.08 1424.44 251.08C1413.43 251.08 1404 254.627 1396.16 261.72C1388.32 268.627 1383.66 278.053 1382.16 290H1467.56Z" fill="url(#paint5_linear_10057_117542)"/>
<path d="M1564.22 249.12C1568.88 241.28 1575.04 235.213 1582.7 230.92C1590.54 226.44 1599.78 224.2 1610.42 224.2V257.24H1602.3C1589.79 257.24 1580.27 260.413 1573.74 266.76C1567.39 273.107 1564.22 284.12 1564.22 299.8V381H1532.3V226.72H1564.22V249.12Z" fill="url(#paint6_linear_10057_117542)"/>
<path d="M1781.16 300.08C1781.16 305.867 1780.78 311.093 1780.04 315.76H1662.16C1663.09 328.08 1667.66 337.973 1675.88 345.44C1684.09 352.907 1694.17 356.64 1706.12 356.64C1723.29 356.64 1735.42 349.453 1742.52 335.08H1776.96C1772.29 349.267 1763.8 360.933 1751.48 370.08C1739.34 379.04 1724.22 383.52 1706.12 383.52C1691.37 383.52 1678.12 380.253 1666.36 373.72C1654.78 367 1645.64 357.667 1638.92 345.72C1632.38 333.587 1629.12 319.587 1629.12 303.72C1629.12 287.853 1632.29 273.947 1638.64 262C1645.17 249.867 1654.22 240.533 1665.8 234C1677.56 227.467 1691 224.2 1706.12 224.2C1720.68 224.2 1733.65 227.373 1745.04 233.72C1756.42 240.067 1765.29 249.027 1771.64 260.6C1777.98 271.987 1781.16 285.147 1781.16 300.08ZM1747.84 290C1747.65 278.24 1743.45 268.813 1735.24 261.72C1727.02 254.627 1716.85 251.08 1704.72 251.08C1693.7 251.08 1684.28 254.627 1676.44 261.72C1668.6 268.627 1663.93 278.053 1662.44 290H1747.84Z" fill="url(#paint7_linear_10057_117542)"/>
<path d="M1951.45 226.72L1856.81 453.52H1823.77L1855.13 378.48L1794.37 226.72H1829.93L1873.33 344.32L1918.41 226.72H1951.45Z" fill="url(#paint8_linear_10057_117542)"/>
<path d="M2111.83 186.4C2132.55 186.4 2150.66 190.413 2166.15 198.44C2181.83 206.28 2193.87 217.667 2202.27 232.6C2210.86 247.347 2215.15 264.613 2215.15 284.4C2215.15 304.187 2210.86 321.36 2202.27 335.92C2193.87 350.48 2181.83 361.68 2166.15 369.52C2150.66 377.173 2132.55 381 2111.83 381H2048.27V186.4H2111.83ZM2111.83 354.96C2134.61 354.96 2152.06 348.8 2164.19 336.48C2176.33 324.16 2182.39 306.8 2182.39 284.4C2182.39 261.813 2176.33 244.173 2164.19 231.48C2152.06 218.787 2134.61 212.44 2111.83 212.44H2080.19V354.96H2111.83Z" fill="url(#paint9_linear_10057_117542)"/>
<path d="M2313.71 383.52C2299.15 383.52 2285.99 380.253 2274.23 373.72C2262.47 367 2253.23 357.667 2246.51 345.72C2239.79 333.587 2236.43 319.587 2236.43 303.72C2236.43 288.04 2239.88 274.133 2246.79 262C2253.7 249.867 2263.12 240.533 2275.07 234C2287.02 227.467 2300.36 224.2 2315.11 224.2C2329.86 224.2 2343.2 227.467 2355.15 234C2367.1 240.533 2376.52 249.867 2383.43 262C2390.34 274.133 2393.79 288.04 2393.79 303.72C2393.79 319.4 2390.24 333.307 2383.15 345.44C2376.06 357.573 2366.35 367 2354.03 373.72C2341.9 380.253 2328.46 383.52 2313.71 383.52ZM2313.71 355.8C2321.92 355.8 2329.58 353.84 2336.67 349.92C2343.95 346 2349.83 340.12 2354.31 332.28C2358.79 324.44 2361.03 314.92 2361.03 303.72C2361.03 292.52 2358.88 283.093 2354.59 275.44C2350.3 267.6 2344.6 261.72 2337.51 257.8C2330.42 253.88 2322.76 251.92 2314.55 251.92C2306.34 251.92 2298.68 253.88 2291.59 257.8C2284.68 261.72 2279.18 267.6 2275.07 275.44C2270.96 283.093 2268.91 292.52 2268.91 303.72C2268.91 320.333 2273.11 333.213 2281.51 342.36C2290.1 351.32 2300.83 355.8 2313.71 355.8Z" fill="url(#paint10_linear_10057_117542)"/>
<path d="M2414.7 303.72C2414.7 287.853 2417.88 273.947 2424.22 262C2430.76 249.867 2439.72 240.533 2451.1 234C2462.49 227.467 2475.56 224.2 2490.3 224.2C2508.97 224.2 2524.37 228.68 2536.5 237.64C2548.82 246.413 2557.13 259.013 2561.42 275.44H2526.98C2524.18 267.787 2519.7 261.813 2513.54 257.52C2507.38 253.227 2499.64 251.08 2490.3 251.08C2477.24 251.08 2466.78 255.747 2458.94 265.08C2451.29 274.227 2447.46 287.107 2447.46 303.72C2447.46 320.333 2451.29 333.307 2458.94 342.64C2466.78 351.973 2477.24 356.64 2490.3 356.64C2508.78 356.64 2521.01 348.52 2526.98 332.28H2561.42C2556.94 347.96 2548.54 360.467 2536.22 369.8C2523.9 378.947 2508.6 383.52 2490.3 383.52C2475.56 383.52 2462.49 380.253 2451.1 373.72C2439.72 367 2430.76 357.667 2424.22 345.72C2417.88 333.587 2414.7 319.587 2414.7 303.72Z" fill="url(#paint11_linear_10057_117542)"/>
<path d="M2649.23 383.52C2637.1 383.52 2626.18 381.373 2616.47 377.08C2606.95 372.6 2599.39 366.627 2593.79 359.16C2588.19 351.507 2585.21 343.013 2584.83 333.68H2617.87C2618.43 340.213 2621.51 345.72 2627.11 350.2C2632.9 354.493 2640.09 356.64 2648.67 356.64C2657.63 356.64 2664.54 354.96 2669.39 351.6C2674.43 348.053 2676.95 343.573 2676.95 338.16C2676.95 332.373 2674.15 328.08 2668.55 325.28C2663.14 322.48 2654.46 319.4 2642.51 316.04C2630.94 312.867 2621.51 309.787 2614.23 306.8C2606.95 303.813 2600.61 299.24 2595.19 293.08C2589.97 286.92 2587.35 278.8 2587.35 268.72C2587.35 260.507 2589.78 253.04 2594.63 246.32C2599.49 239.413 2606.39 234 2615.35 230.08C2624.5 226.16 2634.95 224.2 2646.71 224.2C2664.26 224.2 2678.35 228.68 2688.99 237.64C2699.82 246.413 2705.61 258.453 2706.35 273.76H2674.43C2673.87 266.853 2671.07 261.347 2666.03 257.24C2660.99 253.133 2654.18 251.08 2645.59 251.08C2637.19 251.08 2630.75 252.667 2626.27 255.84C2621.79 259.013 2619.55 263.213 2619.55 268.44C2619.55 272.547 2621.05 276 2624.03 278.8C2627.02 281.6 2630.66 283.84 2634.95 285.52C2639.25 287.013 2645.59 288.973 2653.99 291.4C2665.19 294.387 2674.34 297.467 2681.43 300.64C2688.71 303.627 2694.97 308.107 2700.19 314.08C2705.42 320.053 2708.13 327.987 2708.31 337.88C2708.31 346.653 2705.89 354.493 2701.03 361.4C2696.18 368.307 2689.27 373.72 2680.31 377.64C2671.54 381.56 2661.18 383.52 2649.23 383.52Z" fill="url(#paint12_linear_10057_117542)"/>
<defs>
<radialGradient id="paint0_angular_10057_117542" cx="0" cy="0" r="1" gradientUnits="userSpaceOnUse" gradientTransform="translate(1354.16 256.004) rotate(90) scale(256 1354.16)">
<stop offset="0.499843" stop-opacity="0.81"/>
<stop offset="1"/>
</radialGradient>
<linearGradient id="paint1_linear_10057_117542" x1="1760.5" y1="515" x2="1764" y2="160.5" gradientUnits="userSpaceOnUse">
<stop stop-color="#DEDEDE" stop-opacity="0.63"/>
<stop offset="0.510417" stop-color="#FEFEFE"/>
<stop offset="1" stop-color="white"/>
</linearGradient>
<linearGradient id="paint2_linear_10057_117542" x1="1760.5" y1="515" x2="1764" y2="160.5" gradientUnits="userSpaceOnUse">
<stop stop-color="#DEDEDE" stop-opacity="0.63"/>
<stop offset="0.510417" stop-color="#FEFEFE"/>
<stop offset="1" stop-color="white"/>
</linearGradient>
<linearGradient id="paint3_linear_10057_117542" x1="1760.5" y1="515" x2="1764" y2="160.5" gradientUnits="userSpaceOnUse">
<stop stop-color="#DEDEDE" stop-opacity="0.63"/>
<stop offset="0.510417" stop-color="#FEFEFE"/>
<stop offset="1" stop-color="white"/>
</linearGradient>
<linearGradient id="paint4_linear_10057_117542" x1="1760.5" y1="515" x2="1764" y2="160.5" gradientUnits="userSpaceOnUse">
<stop stop-color="#DEDEDE" stop-opacity="0.63"/>
<stop offset="0.510417" stop-color="#FEFEFE"/>
<stop offset="1" stop-color="white"/>
</linearGradient>
<linearGradient id="paint5_linear_10057_117542" x1="1760.5" y1="515" x2="1764" y2="160.5" gradientUnits="userSpaceOnUse">
<stop stop-color="#DEDEDE" stop-opacity="0.63"/>
<stop offset="0.510417" stop-color="#FEFEFE"/>
<stop offset="1" stop-color="white"/>
</linearGradient>
<linearGradient id="paint6_linear_10057_117542" x1="1760.5" y1="515" x2="1764" y2="160.5" gradientUnits="userSpaceOnUse">
<stop stop-color="#DEDEDE" stop-opacity="0.63"/>
<stop offset="0.510417" stop-color="#FEFEFE"/>
<stop offset="1" stop-color="white"/>
</linearGradient>
<linearGradient id="paint7_linear_10057_117542" x1="1760.5" y1="515" x2="1764" y2="160.5" gradientUnits="userSpaceOnUse">
<stop stop-color="#DEDEDE" stop-opacity="0.63"/>
<stop offset="0.510417" stop-color="#FEFEFE"/>
<stop offset="1" stop-color="white"/>
</linearGradient>
<linearGradient id="paint8_linear_10057_117542" x1="1760.5" y1="515" x2="1764" y2="160.5" gradientUnits="userSpaceOnUse">
<stop stop-color="#DEDEDE" stop-opacity="0.63"/>
<stop offset="0.510417" stop-color="#FEFEFE"/>
<stop offset="1" stop-color="white"/>
</linearGradient>
<linearGradient id="paint9_linear_10057_117542" x1="1760.5" y1="515" x2="1764" y2="160.5" gradientUnits="userSpaceOnUse">
<stop stop-color="#DEDEDE" stop-opacity="0.63"/>
<stop offset="0.510417" stop-color="#FEFEFE"/>
<stop offset="1" stop-color="white"/>
</linearGradient>
<linearGradient id="paint10_linear_10057_117542" x1="1760.5" y1="515" x2="1764" y2="160.5" gradientUnits="userSpaceOnUse">
<stop stop-color="#DEDEDE" stop-opacity="0.63"/>
<stop offset="0.510417" stop-color="#FEFEFE"/>
<stop offset="1" stop-color="white"/>
</linearGradient>
<linearGradient id="paint11_linear_10057_117542" x1="1760.5" y1="515" x2="1764" y2="160.5" gradientUnits="userSpaceOnUse">
<stop stop-color="#DEDEDE" stop-opacity="0.63"/>
<stop offset="0.510417" stop-color="#FEFEFE"/>
<stop offset="1" stop-color="white"/>
</linearGradient>
<linearGradient id="paint12_linear_10057_117542" x1="1760.5" y1="515" x2="1764" y2="160.5" gradientUnits="userSpaceOnUse">
<stop stop-color="#DEDEDE" stop-opacity="0.63"/>
<stop offset="0.510417" stop-color="#FEFEFE"/>
<stop offset="1" stop-color="white"/>
</linearGradient>
</defs>
</svg>
