<svg width="157" height="41" viewBox="0 0 157 41" fill="none" xmlns="http://www.w3.org/2000/svg">
<path d="M3.36 15H1.28V0.919999H3.36V15ZM11.6084 4.6C13.9684 4.6 15.4084 5.92 15.4084 8.92V15H13.4884V9.32C13.4884 6.94 12.4684 6.28 11.1284 6.28C9.64844 6.28 8.04844 7.78 8.04844 10.22V15H6.12844V4.76H8.04844V5.44C8.04844 5.86 8.00844 6.28 7.82844 6.8C7.76844 6.98 7.68844 7.18 7.84844 7.22C7.96844 7.26 8.02844 7.12 8.06844 7.04C8.46844 6.04 9.76844 4.6 11.6084 4.6ZM17.0556 11.44H18.9356C18.9556 12.22 19.5956 13.48 21.5956 13.48C23.5556 13.48 24.0956 12.7 24.0956 12.04C24.0956 11.12 23.2356 10.84 20.8956 10.6C18.2156 10.32 17.3756 9.1 17.3756 7.76C17.3756 6.22 18.7756 4.6 21.5756 4.6C24.1556 4.6 25.5556 6.08 25.6956 8H23.8156C23.7556 7.34 23.3156 6.28 21.5156 6.28C19.8956 6.28 19.2956 6.94 19.2956 7.62C19.2956 8.28 19.6756 8.72 21.8956 8.96C24.6556 9.26 26.0156 10.06 26.0156 11.74C26.0156 13.82 24.3156 15.16 21.5156 15.16C18.7356 15.16 17.1556 13.7 17.0556 11.44ZM27.8938 2.84V0.599999H29.9738V2.84H27.8938ZM27.9738 15V4.76H29.8938V15H27.9738ZM31.8502 9.8C31.8502 6.74 33.7102 4.6 36.3702 4.6C38.0102 4.6 39.1702 5.48 39.8102 6.78C39.8302 6.84 39.9102 7.04 40.0302 7C40.2302 6.94 40.0902 6.72 40.0302 6.54C39.8902 6.18 39.8502 5.92 39.8502 5.44V4.76H41.7702V14.08C41.7702 17.4 39.7502 19 36.8702 19C33.8502 19 32.3502 17.46 32.1702 15.64H34.0902C34.2102 16.46 34.6502 17.48 36.8502 17.48C38.7902 17.48 39.8502 16.34 39.8502 14.08C39.8502 13.64 39.8902 13.36 40.0302 13.02C40.1102 12.84 40.2102 12.66 40.0302 12.6C39.8902 12.56 39.8302 12.72 39.8102 12.78C39.1502 14.16 37.9702 15 36.3702 15C33.7102 15 31.8502 12.86 31.8502 9.8ZM36.8102 13.24C38.6302 13.24 39.8502 11.74 39.8502 9.8C39.8502 7.86 38.6302 6.36 36.8102 6.36C34.8302 6.36 33.7702 7.86 33.7702 9.8C33.7702 11.74 34.8302 13.24 36.8102 13.24ZM49.8498 4.6C52.2098 4.6 53.6498 5.92 53.6498 8.92V15H51.7298V9.32C51.7298 6.94 50.7098 6.28 49.3698 6.28C47.8898 6.28 46.2898 7.78 46.2898 10.22V15H44.3698V0.599999H46.2898V5.44C46.2898 5.86 46.2498 6.28 46.0698 6.8C46.0098 6.98 45.9298 7.18 46.0898 7.22C46.2098 7.26 46.2698 7.12 46.3098 7.04C46.7098 6.04 48.0098 4.6 49.8498 4.6ZM61.697 6.44H58.817V11.8C58.817 12.96 59.057 13.32 60.177 13.32H61.697V15H60.017C57.897 15 56.897 14.22 56.897 12V6.44H54.977V4.76H56.897V1.88H58.817V4.76H61.697V6.44ZM79.9466 15L78.8066 11.64H72.2866L71.1466 15H68.8266L73.9466 0.919999H77.1466L82.2666 15H79.9466ZM72.8666 9.88H78.2266L75.9066 3C75.8266 2.74 75.7466 2.5 75.7066 2.16C75.6866 2.04 75.6866 1.92 75.5466 1.92C75.4066 1.92 75.4066 2.04 75.3866 2.16C75.3466 2.5 75.2666 2.74 75.1866 3L72.8666 9.88ZM89.2241 4.6C91.5841 4.6 93.0241 5.92 93.0241 8.92V15H91.1041V9.32C91.1041 6.94 90.0841 6.28 88.7441 6.28C87.2641 6.28 85.6641 7.78 85.6641 10.22V15H83.7441V4.76H85.6641V5.44C85.6641 5.86 85.6241 6.28 85.4441 6.8C85.3841 6.98 85.3041 7.18 85.4641 7.22C85.5841 7.26 85.6441 7.12 85.6841 7.04C86.0841 6.04 87.3841 4.6 89.2241 4.6ZM94.8275 12.14C94.8275 9.8 96.5475 9.08 98.5075 8.94C100.348 8.8 102.208 9.02 102.188 7.96C102.168 7.12 101.688 6.28 99.5875 6.28C97.7875 6.28 97.1675 6.96 97.0275 7.96H95.1475C95.5075 5.62 97.3075 4.6 99.6675 4.6C101.968 4.6 104.108 5.4 104.108 9.16V15H102.188V14.02C102.188 13.64 102.228 13.34 102.408 12.82C102.448 12.64 102.528 12.48 102.388 12.42C102.228 12.36 102.188 12.52 102.148 12.62C101.568 14.14 100.208 15.16 98.3475 15.16C96.4075 15.16 94.8275 13.88 94.8275 12.14ZM102.188 9.48C101.568 10.24 100.188 10.26 98.6275 10.48C97.3875 10.66 96.7475 11.1 96.7475 12.04C96.7475 12.86 97.4275 13.62 99.0875 13.4C100.648 13.2 102.168 12.06 102.188 9.48ZM106.703 0.599999H108.623V15H106.703V0.599999ZM109.939 4.76H112.019L114.779 12.32C114.919 12.68 114.939 13.06 114.939 13.4C114.939 13.52 114.939 13.66 115.099 13.66C115.259 13.66 115.259 13.52 115.259 13.4C115.259 13.06 115.319 12.68 115.439 12.32L118.099 4.76H120.179L115.739 16.22C115.019 18.1 114.019 18.84 112.179 18.84H110.859V17.16H111.779C113.299 17.16 113.559 16.82 113.859 16.08L114.139 15.4L109.939 4.76ZM127.413 6.44H124.533V11.8C124.533 12.96 124.773 13.32 125.893 13.32H127.413V15H125.733C123.613 15 122.613 14.22 122.613 12V6.44H120.693V4.76H122.613V1.88H124.533V4.76H127.413V6.44ZM129.625 2.84V0.599999H131.705V2.84H129.625ZM129.705 15V4.76H131.625V15H129.705ZM133.425 9.88C133.425 6.98 135.245 4.6 138.445 4.6C141.245 4.6 142.845 6.5 143.025 8.6H141.145C140.965 7.44 140.085 6.36 138.465 6.36C136.505 6.36 135.345 7.98 135.345 9.88C135.345 11.78 136.505 13.4 138.465 13.4C140.085 13.4 140.965 12.32 141.145 11.16H143.025C142.845 13.26 141.265 15.16 138.445 15.16C135.305 15.16 133.425 12.78 133.425 9.88ZM144.504 11.44H146.384C146.404 12.22 147.044 13.48 149.044 13.48C151.004 13.48 151.544 12.7 151.544 12.04C151.544 11.12 150.684 10.84 148.344 10.6C145.664 10.32 144.824 9.1 144.824 7.76C144.824 6.22 146.224 4.6 149.024 4.6C151.604 4.6 153.004 6.08 153.144 8H151.264C151.204 7.34 150.764 6.28 148.964 6.28C147.344 6.28 146.744 6.94 146.744 7.62C146.744 8.28 147.124 8.72 149.344 8.96C152.104 9.26 153.464 10.06 153.464 11.74C153.464 13.82 151.764 15.16 148.964 15.16C146.184 15.16 144.604 13.7 144.504 11.44Z" fill="#080A0A"/>
<path d="M0.958807 36V27.2727H2.23295V30.5156H2.30966C2.38352 30.3793 2.49006 30.2216 2.62926 30.0426C2.76847 29.8636 2.96165 29.7074 3.20881 29.5739C3.45597 29.4375 3.78267 29.3693 4.18892 29.3693C4.71733 29.3693 5.18892 29.5028 5.60369 29.7699C6.01847 30.0369 6.34375 30.4219 6.57955 30.9247C6.81818 31.4276 6.9375 32.0327 6.9375 32.7401C6.9375 33.4474 6.8196 34.054 6.58381 34.5597C6.34801 35.0625 6.02415 35.4503 5.61222 35.723C5.20028 35.9929 4.73011 36.1278 4.2017 36.1278C3.80398 36.1278 3.47869 36.0611 3.22585 35.9276C2.97585 35.794 2.77983 35.6378 2.63778 35.4588C2.49574 35.2798 2.38636 35.1207 2.30966 34.9815H2.20312V36H0.958807ZM2.20739 32.7273C2.20739 33.1875 2.27415 33.5909 2.40767 33.9375C2.54119 34.2841 2.73438 34.5554 2.98722 34.7514C3.24006 34.9446 3.54972 35.0412 3.91619 35.0412C4.29688 35.0412 4.61506 34.9403 4.87074 34.7386C5.12642 34.5341 5.3196 34.2571 5.45028 33.9077C5.58381 33.5582 5.65057 33.1648 5.65057 32.7273C5.65057 32.2955 5.58523 31.9077 5.45455 31.5639C5.3267 31.2202 5.13352 30.9489 4.875 30.75C4.61932 30.5511 4.29972 30.4517 3.91619 30.4517C3.54688 30.4517 3.23438 30.5469 2.97869 30.7372C2.72585 30.9276 2.53409 31.1932 2.40341 31.5341C2.27273 31.875 2.20739 32.2727 2.20739 32.7273ZM9.07099 38.4545C8.88065 38.4545 8.70736 38.4389 8.55111 38.4077C8.39486 38.3793 8.27838 38.348 8.20168 38.3139L8.50849 37.2699C8.74145 37.3324 8.94884 37.3594 9.13065 37.3509C9.31247 37.3423 9.47298 37.2741 9.61219 37.1463C9.75423 37.0185 9.87923 36.8097 9.98719 36.5199L10.1449 36.0852L7.74997 29.4545H9.11361L10.7713 34.5341H10.8395L12.4971 29.4545H13.865L11.1676 36.8736C11.0426 37.2145 10.8835 37.5028 10.6903 37.7386C10.4971 37.9773 10.267 38.1563 9.99997 38.2756C9.73293 38.3949 9.42327 38.4545 9.07099 38.4545Z" fill="#080A0A"/>
<g clip-path="url(#clip0_4_90)">
<path d="M95.9313 32.0204H100.506C100.378 30.7544 99.6428 29.9104 98.2648 29.9104C96.9786 29.9104 96.1701 30.736 95.9313 32.0204ZM98.2648 37.4697C95.4719 37.4697 94.0388 35.4147 94.0388 32.9011C94.0388 30.3874 95.6924 28.3325 98.3015 28.3325C100.911 28.3325 102.362 30.3507 102.362 32.6626C102.362 32.9378 102.344 33.3231 102.307 33.4882H95.8762C95.968 34.901 96.7581 35.8918 98.1729 35.8918C99.3304 35.8918 100.029 35.3597 100.323 34.3322H102.197C101.774 36.1853 100.525 37.4697 98.2648 37.4697ZM84.0802 32.8277C84.0802 30.1856 85.6971 28.3325 88.0857 28.3325C89.721 28.3325 90.7866 29.2866 91.1909 30.5709C91.2092 30.6259 91.2644 30.6259 91.2644 30.5709V28.4793H92.9915V36.222C92.9915 38.9742 91.4665 40.8273 88.4348 40.8273C86.083 40.8273 84.5947 39.6347 84.3742 37.8733H86.2483C86.3953 38.6072 86.9465 39.2494 88.4716 39.2494C90.4008 39.2494 91.2276 38.0385 91.2644 36.2771L91.2827 35.1579C91.2827 35.1028 91.2276 35.1028 91.2092 35.1579C90.7866 36.4972 89.5923 37.3229 88.0857 37.3229C85.6971 37.3229 84.0802 35.4698 84.0802 32.8277ZM91.0439 32.8277C91.0439 31.1397 90.0333 29.9104 88.4716 29.9104C86.7261 29.9104 85.9176 31.1397 85.9176 32.8277C85.9176 34.5157 86.7261 35.745 88.4716 35.745C90.0333 35.745 91.0439 34.4973 91.0439 32.8277ZM78.954 28.4793H80.5892L80.5709 30.5709C80.5709 30.6259 80.626 30.6259 80.6443 30.5709C81.1037 29.2499 81.6917 28.3325 83.7495 28.3325V30.0755C81.416 30.0021 80.7178 31.3048 80.7178 33.1396V37.3412H78.954V28.4793ZM71.0533 32.9011C71.0533 34.5891 71.8801 35.8918 73.5153 35.8918C75.1506 35.8918 75.9774 34.5891 75.9774 32.9011C75.9774 31.2131 75.1506 29.9104 73.5153 29.9104C71.8801 29.9104 71.0533 31.2131 71.0533 32.9011ZM77.8515 32.9011C77.8515 35.4331 76.2163 37.4697 73.5153 37.4697C70.8144 37.4697 69.1791 35.4331 69.1791 32.9011C69.1791 30.3691 70.8144 28.3325 73.5153 28.3325C76.2163 28.3325 77.8515 30.3691 77.8515 32.9011ZM64.6592 37.3412V30.0021H63.2995V28.4793H64.6959V28.2591C64.6959 26.1307 65.8719 24.8647 68.8852 25.0115V26.6812C67.011 26.4977 66.4231 27.1582 66.4231 28.4793H68.8852V30.0021H66.4231V37.3412H64.6592ZM56.3738 32.0204H60.9489C60.8202 30.7544 60.0853 29.9104 58.7073 29.9104C57.4211 29.9104 56.6127 30.736 56.3738 32.0204ZM58.7073 37.4697C55.9145 37.4697 54.4813 35.4147 54.4813 32.9011C54.4813 30.3874 56.1349 28.3325 58.744 28.3325C61.3531 28.3325 62.8046 30.3507 62.8046 32.6626C62.8046 32.9378 62.7862 33.3231 62.7495 33.4882H56.3187C56.4105 34.901 57.2006 35.8918 58.6154 35.8918C59.7729 35.8918 60.4711 35.3597 60.7651 34.3322H62.6392C62.2166 36.1853 60.9672 37.4697 58.7073 37.4697ZM46.3417 31.2314H48.8773C50.6779 31.2314 51.6885 30.4608 51.6885 28.9746C51.6885 27.6353 50.9535 26.8646 49.0059 26.8646H46.3417V31.2314ZM44.4492 37.3412V25.25H48.9508C52.203 25.25 53.581 26.6445 53.581 28.7912C53.581 30.3874 52.5704 31.9103 50.0716 32.0204C50.0165 32.0204 50.0165 32.0938 50.0716 32.0938C52.6623 32.3873 54.022 34.6074 54.022 37.3412H52.0376C52.0376 34.9193 50.9719 32.846 48.3812 32.846H46.3417V37.3412H44.4492Z" fill="#080A0A"/>
<path d="M24.4421 25.115C24.3956 25.0956 24.4071 25.0273 24.4574 25.0245C25.6818 24.9535 26.9147 25.0442 27.6446 25.203C28.9405 25.4853 30.1073 25.9906 30.9114 27.225C31.2567 27.7551 31.5077 28.3396 31.587 28.9401C31.5922 28.9789 31.5621 29.0133 31.5228 29.0133H27.1433C27.1089 29.0133 27.081 28.987 27.0786 28.9532C26.9854 27.549 26.2244 25.8589 24.4421 25.115Z" fill="#080A0A"/>
<path d="M35.8926 37.2225C35.9391 37.242 35.9277 37.3102 35.8773 37.313C34.653 37.3841 33.42 37.2933 32.6901 37.1345C31.3942 36.8523 30.2274 36.347 29.4233 35.1125C29.0781 34.5824 28.8271 33.9979 28.7477 33.3974C28.7425 33.3587 28.7726 33.3242 28.8119 33.3242H33.1917C33.226 33.3242 33.2539 33.3505 33.2563 33.3844C33.3495 34.7885 34.1105 36.4786 35.8926 37.2225Z" fill="#080A0A"/>
<path d="M26.7932 29.4262C26.8208 29.3876 26.7808 29.3374 26.7367 29.3551C25.6821 29.7831 21.0914 31.9573 22.0301 34.9112C22.8555 37.4838 27.2418 37.376 28.2536 37.3156C28.304 37.3126 28.3152 37.2446 28.2687 37.2253C26.4583 36.4713 25.7005 34.7421 25.6261 33.3347C25.5723 32.3154 25.838 30.7558 26.7932 29.4262V29.4262Z" fill="#080A0A"/>
<path d="M33.5514 32.9111C33.5237 32.9496 33.5637 32.9999 33.6078 32.9821C34.6625 32.5543 39.2534 30.3799 38.3147 27.4261C37.4892 24.8534 33.1028 24.9613 32.091 25.0214C32.0408 25.0244 32.0294 25.0923 32.0759 25.1117C33.8865 25.8657 34.6443 27.5949 34.7187 29.0025C34.7725 30.0219 34.5068 31.5814 33.5516 32.9111H33.5514Z" fill="#080A0A"/>
</g>
<defs>
<clipPath id="clip0_4_90">
<rect width="80.7805" height="16" fill="white" transform="translate(22 25)"/>
</clipPath>
</defs>
</svg>
