<?xml version="1.0" encoding="UTF-8"?>
<svg viewBox="0 0 32 32" xmlns="http://www.w3.org/2000/svg">
<rect width="32" height="32"/>
<path d="m27.562 4.1478 0.4375-0.14752 8e-4 5.3e-4v0.44543c0 1.9012-1.1488 3.4309-3.6154 4.814-0.2466 0.13833-0.4396 0.39057-0.5742 0.74991-0.3905 1.0436-0.2824 2.9847 0.3047 5.4652 0.3039 1.2838 0.3413 2.5899 0.1111 3.8827-0.2313 1.2993-0.7214 2.518-1.4562 3.6217-0.0022 0.0032-0.0044 0.0066-0.0066 0.0097-0.1343 0.2011-0.1485 0.4531-0.0434 0.6699 0.1333 0.2748 0.1961 0.5853 0.1851 0.9263-0.0245 0.772 0.355 1.2447 0.6887 1.5702 0.1532 0.1493 0.2043 0.3638 0.1352 0.5622-0.0735 0.2111-0.2761 0.3567-0.5066 0.3788-0.1837 0.0176-0.3986 0.0302-0.6343 0.0302-0.7179 0-1.6302-0.1181-2.4576-0.5788-0.3864-0.215-0.8629-0.2131-1.2493 0.0016-1.7123 0.951-3.647 1.4502-5.6478 1.4502-1.2462 0-2.4554-0.2347-3.594-0.6977-0.00874-0.0037-0.01775-0.0073-0.02676-0.011-0.3356-0.1376-0.71707-0.1344-1.045 0.0191-0.76568 0.3586-1.5778 0.4523-2.2173 0.4523-0.23592 0-0.4481-0.0129-0.62586-0.0296-0.23129-0.0218-0.43445-0.1673-0.50818-0.3791-0.06908-0.1984-0.01802-0.4126 0.13517-0.5622 0.33369-0.3255 0.71352-0.7982 0.68895-1.5702-0.00519-0.1685 0.00791-0.3315 0.03877-0.4859-0.55569-0.653-1.0095-1.3751-1.3533-2.1565-0.48169-1.0943-0.72581-2.2569-0.72581-3.4548 0-1.198 0.24412-2.3606 0.72581-3.4549 0.46503-1.057 1.1308-2.0061 1.9786-2.8212 0.84787-0.815 1.8353-1.4549 2.9349-1.9019 1.1384-0.463 2.3478-0.6977 3.594-0.6977 1.2463 0 2.4554 0.2347 3.5941 0.6977 1.0997 0.447 2.0871 1.0869 2.9349 1.9019 0.8479 0.8151 1.5136 1.7642 1.9787 2.8212 0.4817 1.0943 0.7258 2.2569 0.7258 3.4549 0 0.1766-0.1554 0.3194-0.3356 0.3157-0.1803-0.0037-0.3217-0.152-0.3217-0.3252-0.0055-4.5412-3.8505-8.2344-8.5762-8.2344-3.0359 0-5.7081 1.5243-7.2326 3.8184-0.35061 0.5276-0.01447 1.2281 0.63133 1.3087 1.5193 0.1898 3.362 0.6218 5.2598 1.5376 3.2672 1.5771 5.8542 4.1728 7.6895 7.7158 0.0063 0.012 0.0117 0.0246 0.0164 0.0372 0.0254 0.0707 0.0783 0.1271 0.1433 0.1678 0.0194 0.012 0.0377 0.0262 0.0546 0.0428 0.9776 0.9536 2.3719 1.0307 3.2127 0.9717-0.3706-0.3898-0.7897-0.9906-0.7605-1.9143 0.0426-1.3418-1.5614-1.5253-1.6297-1.5324-0.1799-0.0189-0.3107-0.1743-0.2916-0.3475 0.0191-0.1733 0.1805-0.2987 0.3602-0.2809 0.0235 0.0025 0.5665 0.059 1.1053 0.3428 0.0871 0.0459 0.1693 0.0953 0.2466 0.1475 0.0604-0.085 0.1196-0.1709 0.177-0.2569 1.3691-2.0563 1.8279-4.6164 1.258-7.0239-0.4348-1.8371-0.8367-4.3378-0.2821-5.8192 0.1881-0.50266 0.4779-0.86673 0.8615-1.0817 2.0728-1.1623 3.099-2.3584 3.2651-3.8299-0.5899 0.16352-1.5879 0.38506-2.193 0.21392-0.3337-0.09423-1.03-0.13833-1.7154-0.03963-0.7362 0.10604-1.2635 0.35173-1.4465 0.67406-8e-4 0.00134-0.0016 0.00261-0.0025 0.00388-8e-4 0.00122-0.0016 0.00244-0.0024 0.00373-0.0033 0.00577-0.0068 0.01129-0.0106 0.0168-0.0025 0.00341-0.0052 0.00708-0.0079 0.0105-0.0036 0.00472-0.0074 0.00945-0.0112 0.01417-0.0033 0.00394-0.0066 0.00761-0.0101 0.01129-0.0014 0.00135-0.0026 0.0027-0.0039 0.00404-0.0024 0.00257-0.0048 0.00509-0.0073 0.00751-0.0041 0.00393-0.0085 0.00787-0.0129 0.01155-0.0035 0.00315-0.0068 0.0063-0.0106 0.00918-0.0041 0.00347-0.0085 0.00658-0.0129 0.00963l-0.0027 0.00192c-0.0033 0.00237-0.0065 0.00473-0.0101 0.00709-6e-3 0.00394-0.012 0.00735-0.0183 0.01076-0.0024 0.00158-0.0049 0.00315-0.0074 0.00446l-0.0012 4.4e-4 -0.0012 6.1e-4c-0.0042 0.0021-0.0084 0.00397-0.0126 0.00584-0.0021 9.3e-4 -0.0042 0.00186-0.0063 0.00283-0.0019 7.8e-4 -0.0037 0.00164-0.0056 0.00249-0.0018 8.5e-4 -0.0036 0.00171-0.0056 0.00249-0.0054 0.0021-0.0106 0.00368-0.0161 0.00552-0.0023 6.9e-4 -0.0045 0.00149-0.0067 0.00228-0.0028 9.9e-4 -0.0055 0.00197-0.0083 0.0027-0.0023 6e-4 -0.0046 0.00111-0.0068 0.00164-0.0017 4e-4 -0.0034 8e-4 -0.0052 0.00125-0.0063 0.00157-0.0126 0.00315-0.0191 0.00446-0.0014 2.3e-4 -0.0028 4.1e-4 -0.0043 5.8e-4 -0.0018 2.2e-4 -0.0037 4.4e-4 -0.0055 7.3e-4 -0.0071 0.00105-0.0145 0.0021-0.0216 0.00289-0.0049 5.3e-4 -0.0101 7.9e-4 -0.015 7.9e-4 -0.0019 9e-5 -0.0037 2e-4 -0.0055 3.2e-4 -0.0036 2.3e-4 -0.0073 4.7e-4 -0.0109 4.7e-4 -9e-3 0-0.0178-5.3e-4 -0.0265-0.00132h-0.0049c-0.0093-0.00105-0.0186-0.00236-0.0279-0.00393-0.0011-2.7e-4 -0.0022-5.3e-4 -0.0033-5.3e-4 -0.0076-0.00131-0.0152-0.00315-0.0229-0.00525-0.0013-3.4e-4 -0.0025-6.3e-4 -0.0037-9.1e-4 -0.0016-3.8e-4 -0.0032-7.4e-4 -0.0048-0.00119-0.0028-9.2e-4 -0.0057-0.0019-0.0086-0.00288-0.0028-9.9e-4 -0.0057-0.00197-0.0086-0.00289-0.0015-5.3e-4 -3e-3 -0.00102-0.0046-0.00152-0.0031-9.9e-4 -0.0062-0.00198-0.0093-0.00321-0.0021-8e-4 -0.0042-0.00174-0.0064-0.00271-0.0021-9.4e-4 -0.0041-0.0019-0.0061-0.0028-0.0014-6.4e-4 -0.0028-0.00128-0.0043-0.00192-0.0044-2e-3 -0.0089-0.00403-0.0132-0.00622 0 0-9e-4 -4.5e-4 -0.0014-6.5e-4s-0.0014-6.6e-4 -0.0014-6.6e-4c-0.0027-0.00157-0.0051-0.00315-0.0079-0.00472-0.0057-0.00315-0.0117-0.00657-0.0174-0.01024-0.0018-0.00118-0.0036-0.00243-0.0054-0.00368s-0.0035-0.00249-0.0053-0.00367c-0.0049-0.00341-0.0101-0.00709-0.015-0.01102-0.0038-0.00313-0.0077-0.00633-0.0112-0.00945-0.0044-0.00368-0.0085-0.00735-0.0126-0.01129-0.0027-0.00262-0.0052-0.00525-0.0077-0.00787-0.0012-0.00132-0.0025-0.00263-0.0037-0.00394-0.0036-0.00368-0.0069-0.00735-0.0101-0.01103-0.0039-0.00446-0.0077-0.00945-0.0112-0.01417-0.0028-0.00341-0.0055-0.00682-8e-3 -0.0105-0.0038-0.00551-0.0073-0.01129-0.0106-0.0168l-0.0049-0.00787c-0.1832-0.3226-0.7103-0.56828-1.4467-0.67406-0.6854-0.0987-1.3817-0.0546-1.7154 0.03963-0.6054 0.17114-1.6032-0.05013-2.193-0.21392 0.166 1.4715 1.1922 2.6676 3.265 3.8299 0.381 0.21366 0.6696 0.57405 0.8577 1.0715 0.0623 0.16458-0.0204 0.35278-0.1914 0.41338-0.0377 0.0134-0.0762 0.0197-0.1139 0.0197-0.1346 0-0.2607-0.08-0.3091-0.2089-0.1343-0.35936-0.3276-0.61161-0.5742-0.74994-2.4666-1.383-3.6154-2.9128-3.6154-4.814v-0.4457l0.4374 0.14778c0.6117 0.20631 1.764 0.48218 2.2515 0.34438 0.4773-0.13492 1.2989-0.15907 1.998-0.05854 0.536 0.07717 1.2017 0.25173 1.6378 0.64309 0.4361-0.39163 1.1019-0.56592 1.6379-0.64309 0.699-0.10053 1.5207-0.07638 1.998 0.05854 0.4874 0.1378 1.6398-0.13807 2.2514-0.34438zm-8.4494 21.521c-0.0497-0.0299-0.0918-0.0729-0.1199-0.127-2.0819-4.0189-4.8797-6.2839-7.586-7.5414-0.6016-0.2796-1.3053 0.1372-1.3064 0.7795v0.0129c0 3.7824 2.6608 7.0695 6.4706 7.994h0.0011c0.0761 0.0189 0.1559 0.0178 0.2299-0.0074 0.8093-0.2764 1.5846-0.6478 2.3107-1.1106zm-9.5366-8.3814c-0.0811-0.0257-0.16165-0.0509-0.2422-0.075h2.7e-4c-1.1007-0.3318-2.2288 0.4507-2.2315 1.5597v0.0207c0 4.399 3.6025 8.0039 8.1207 8.2323-1.48-0.5764-2.8003-1.5222-3.7978-2.7369-0.6294-0.7665-1.1193-1.6198-1.4565-2.5364-0.34871-0.9484-0.52566-1.944-0.52566-2.959 0-0.5053 0.04479-1.0103 0.13271-1.5054zm-2.8797 8.1048c-0.02949 0.8166-0.41561 1.3615-0.75995 1.7237 0.62287 0.0436 1.5961 0.0137 2.4581-0.431-0.61057-0.3614-1.1764-0.7909-1.6906-1.2851-0.00119-0.0012-0.00239-0.0024-0.00361-0.0036-0.0013-0.0013-0.00263-0.0027-0.00403-4e-3zm-1.9745-7.2842c-0.04287 0.3328-0.06499 0.6719-0.06499 1.0158h2.7e-4c0 4.5457 3.8472 8.2438 8.5762 8.2438 0.0087 0 0.0175-1e-4 0.0263-2e-4 0.0088-2e-4 0.0177-3e-4 0.0264-3e-4 -0.4077-0.105-0.8088-0.2367-1.2012-0.3963-1.0997-0.4471-2.0871-1.087-2.9349-1.902s-1.5136-1.7642-1.9786-2.8212c-0.48169-1.0943-0.72581-2.2568-0.72581-3.4548 0-0.7252 0.0912-1.4439 0.27088-2.1414-0.00573-7e-4 -0.01174-0.0015-0.01748-0.0023-0.96501-0.1263-1.8574 0.5297-1.977 1.4589z" clip-rule="evenodd" fill="#fff" fill-rule="evenodd"/>
<path d="m18.982 20.728c0.0393 0.3068-0.1875 0.5861-0.5067 0.6239-0.3191 0.0377-0.6096-0.1803-0.6489-0.4871-0.0393-0.3067 0.1875-0.586 0.5066-0.6238 0.3192-0.0377 0.6097 0.1803 0.649 0.487z" fill="#fff"/>
</svg>
