<svg width="512" height="512" viewBox="0 0 512 512" fill="none" xmlns="http://www.w3.org/2000/svg">
<g clip-path="url(#clip0_8383_47680)">
<g filter="url(#filter0_i_8383_47680)">
<path fill-rule="evenodd" clip-rule="evenodd" d="M194.329 113.752C216.545 136.034 216.339 172.368 193.868 194.906C193.868 194.906 175.856 176.844 153.639 154.561L139.273 140.152C114.464 165.053 114.926 205.87 140.311 231.33C165.702 256.796 206.411 257.254 231.237 232.355L357.174 106.047C361.287 109.518 365.286 113.196 369.159 117.081C440.571 188.702 441.858 303.534 372.033 373.565C371.595 374.004 371.155 374.441 370.713 374.874C379.991 395.91 375.916 421.544 358.562 438.949C358.562 438.949 344.711 425.06 326.32 406.615C326.286 406.632 326.252 406.649 326.219 406.666C325.058 405.401 323.866 404.155 322.643 402.927C275.941 356.088 201.133 355.134 155.329 400.707C159.058 402.858 162.844 404.867 166.679 406.735C208.017 368.506 273.189 370.234 314.214 411.381C314.385 411.552 314.555 411.724 314.724 411.895C249.306 438.851 170.429 424.97 116.302 370.683C44.8961 299.067 43.6036 184.246 113.413 114.214C113.559 114.068 113.705 113.923 113.852 113.779C116.062 111.562 132.716 94.8557 152.935 74.5777C174.658 52.7904 192.27 35.1299 192.27 35.1299C214.086 57.0108 214.864 91.856 194.312 113.735L194.329 113.752ZM281.427 274.237C286.858 268.79 286.758 259.859 281.203 254.288C275.649 248.718 266.744 248.617 261.313 254.064C255.882 259.511 255.982 268.442 261.537 274.013C267.091 279.583 275.996 279.684 281.427 274.237ZM347.542 348.998C386.263 298.298 389.982 228.975 359.061 173.319L367.815 164.539C403.195 225.325 399.473 302.17 356.23 357.712L347.542 348.998ZM335.397 197.053C354.723 238.717 351.102 288.082 324.315 325.703L333.04 334.454C364.278 291.892 367.955 235.059 344.342 188.081L335.397 197.053ZM297.971 299.281C311.729 276.966 314.917 249.819 307.614 224.917L317.1 215.404C328.217 246.078 324.821 280.598 306.792 308.128L297.971 299.281Z" fill="url(#paint0_linear_8383_47680)"/>
</g>
</g>
<defs>
<filter id="filter0_i_8383_47680" x="61.8903" y="35.1299" width="361.681" height="420.337" filterUnits="userSpaceOnUse" color-interpolation-filters="sRGB">
<feFlood flood-opacity="0" result="BackgroundImageFix"/>
<feBlend mode="normal" in="SourceGraphic" in2="BackgroundImageFix" result="shape"/>
<feColorMatrix in="SourceAlpha" type="matrix" values="0 0 0 0 0 0 0 0 0 0 0 0 0 0 0 0 0 0 127 0" result="hardAlpha"/>
<feOffset dy="16.518"/>
<feGaussianBlur stdDeviation="8.25898"/>
<feComposite in2="hardAlpha" operator="arithmetic" k2="-1" k3="1"/>
<feColorMatrix type="matrix" values="0 0 0 0 0 0 0 0 0 0 0 0 0 0 0 0 0 0 0.12 0"/>
<feBlend mode="normal" in2="shape" result="effect1_innerShadow_8383_47680"/>
</filter>
<linearGradient id="paint0_linear_8383_47680" x1="113.429" y1="114.199" x2="413.469" y2="413.357" gradientUnits="userSpaceOnUse">
<stop stop-color="#9ECBFF"/>
<stop offset="0.510417" stop-color="#706DFE"/>
<stop offset="1" stop-color="#C371C8"/>
</linearGradient>
<clipPath id="clip0_8383_47680">
<rect width="512" height="512" fill="white"/>
</clipPath>
</defs>
</svg>
